<svg xmlns="http://www.w3.org/2000/svg" width="29.413" height="34.144" viewBox="0 0 29.413 34.144">
  <g id="Heat" transform="translate(-308.451 -331.65)" opacity="0.35">
    <path id="Path_8" data-name="Path 8" d="M807.864,335.65a8.853,8.853,0,0,0-4.022,7.168c-.136,4.925,3.219,7.551,3.219,12.4a8.173,8.173,0,0,1-3.611,6.953" transform="translate(-494)" fill="none" stroke="#fff" stroke-linecap="round" stroke-width="2"/>
    <path id="Path_9" data-name="Path 9" d="M807.864,335.65a8.853,8.853,0,0,0-4.022,7.168c-.136,4.925,3.219,7.551,3.219,12.4a8.173,8.173,0,0,1-3.611,6.953" transform="translate(-471)" fill="none" stroke="#fff" stroke-linecap="round" stroke-width="2"/>
    <path id="Path_10" data-name="Path 10" d="M808.8,335.65a10.728,10.728,0,0,0-4.873,8.686c-.165,5.968,3.9,9.15,3.9,15.032a9.9,9.9,0,0,1-4.375,8.426" transform="translate(-483 -3)" fill="none" stroke="#fff" stroke-linecap="round" stroke-width="2"/>
  </g>
</svg>
